<?xml version="1.0" encoding="utf-8" standalone="no"?>
<!DOCTYPE svg PUBLIC "-//W3C//DTD SVG 1.1//EN"
  "http://www.w3.org/Graphics/SVG/1.1/DTD/svg11.dtd">
<svg xmlns:xlink="http://www.w3.org/1999/xlink" width="192pt" height="288pt" viewBox="0 0 192 288" xmlns="http://www.w3.org/2000/svg" version="1.1">
 <metadata>
  <rdf:RDF xmlns:dc="http://purl.org/dc/elements/1.1/" xmlns:cc="http://creativecommons.org/ns#" xmlns:rdf="http://www.w3.org/1999/02/22-rdf-syntax-ns#">
   <cc:Work>
    <dc:type rdf:resource="http://purl.org/dc/dcmitype/StillImage"/>
    <dc:date>2025-05-16T14:36:13.174342</dc:date>
    <dc:format>image/svg+xml</dc:format>
    <dc:creator>
     <cc:Agent>
      <dc:title>Matplotlib v3.7.1, https://matplotlib.org/</dc:title>
     </cc:Agent>
    </dc:creator>
   </cc:Work>
  </rdf:RDF>
 </metadata>
 <defs>
  <style type="text/css">*{stroke-linejoin: round; stroke-linecap: butt}</style>
 </defs>
 <g id="figure_1">
  <g id="patch_1">
   <path d="M 0 288 
L 192 288 
L 192 0 
L 0 0 
z
" style="fill: #ffffff"/>
  </g>
  <g id="axes_1">
   <g id="patch_2">
    <path d="M 24 256.32 
L 172.8 256.32 
L 172.8 34.56 
L 24 34.56 
z
" style="fill: #ffffff"/>
   </g>
   <g id="patch_3">
    <path d="M 30.763636 256.32 
L 32.454545 256.32 
L 32.454545 248.118058 
L 30.763636 248.118058 
z
" clip-path="url(#pbae21edd63)" style="fill: #ff4500"/>
   </g>
   <g id="patch_4">
    <path d="M 32.454545 256.32 
L 34.145455 256.32 
L 34.145455 235.815146 
L 32.454545 235.815146 
z
" clip-path="url(#pbae21edd63)" style="fill: #ff4500"/>
   </g>
   <g id="patch_5">
    <path d="M 34.145455 256.32 
L 35.836364 256.32 
L 35.836364 241.966602 
L 34.145455 241.966602 
z
" clip-path="url(#pbae21edd63)" style="fill: #ff4500"/>
   </g>
   <g id="patch_6">
    <path d="M 35.836364 256.32 
L 37.527273 256.32 
L 37.527273 227.613204 
L 35.836364 227.613204 
z
" clip-path="url(#pbae21edd63)" style="fill: #ff4500"/>
   </g>
   <g id="patch_7">
    <path d="M 37.527273 256.32 
L 39.218182 256.32 
L 39.218182 239.916117 
L 37.527273 239.916117 
z
" clip-path="url(#pbae21edd63)" style="fill: #ff4500"/>
   </g>
   <g id="patch_8">
    <path d="M 39.218182 256.32 
L 40.909091 256.32 
L 40.909091 237.865631 
L 39.218182 237.865631 
z
" clip-path="url(#pbae21edd63)" style="fill: #ff4500"/>
   </g>
   <g id="patch_9">
    <path d="M 40.909091 256.32 
L 42.6 256.32 
L 42.6 241.966602 
L 40.909091 241.966602 
z
" clip-path="url(#pbae21edd63)" style="fill: #ff4500"/>
   </g>
   <g id="patch_10">
    <path d="M 42.6 256.32 
L 44.290909 256.32 
L 44.290909 244.017087 
L 42.6 244.017087 
z
" clip-path="url(#pbae21edd63)" style="fill: #ff4500"/>
   </g>
   <g id="patch_11">
    <path d="M 44.290909 256.32 
L 45.981818 256.32 
L 45.981818 235.815146 
L 44.290909 235.815146 
z
" clip-path="url(#pbae21edd63)" style="fill: #ff4500"/>
   </g>
   <g id="patch_12">
    <path d="M 45.981818 256.32 
L 47.672727 256.32 
L 47.672727 241.966602 
L 45.981818 241.966602 
z
" clip-path="url(#pbae21edd63)" style="fill: #ff4500"/>
   </g>
   <g id="patch_13">
    <path d="M 47.672727 256.32 
L 49.363636 256.32 
L 49.363636 248.118058 
L 47.672727 248.118058 
z
" clip-path="url(#pbae21edd63)" style="fill: #ff4500"/>
   </g>
   <g id="patch_14">
    <path d="M 49.363636 256.32 
L 51.054545 256.32 
L 51.054545 235.815146 
L 49.363636 235.815146 
z
" clip-path="url(#pbae21edd63)" style="fill: #ff4500"/>
   </g>
   <g id="patch_15">
    <path d="M 51.054545 256.32 
L 52.745455 256.32 
L 52.745455 235.815146 
L 51.054545 235.815146 
z
" clip-path="url(#pbae21edd63)" style="fill: #ff4500"/>
   </g>
   <g id="patch_16">
    <path d="M 52.745455 256.32 
L 54.436364 256.32 
L 54.436364 235.815146 
L 52.745455 235.815146 
z
" clip-path="url(#pbae21edd63)" style="fill: #ff4500"/>
   </g>
   <g id="patch_17">
    <path d="M 54.436364 256.32 
L 56.127273 256.32 
L 56.127273 237.865631 
L 54.436364 237.865631 
z
" clip-path="url(#pbae21edd63)" style="fill: #ff4500"/>
   </g>
   <g id="patch_18">
    <path d="M 56.127273 256.32 
L 57.818182 256.32 
L 57.818182 241.966602 
L 56.127273 241.966602 
z
" clip-path="url(#pbae21edd63)" style="fill: #ff4500"/>
   </g>
   <g id="patch_19">
    <path d="M 57.818182 256.32 
L 59.509091 256.32 
L 59.509091 239.916117 
L 57.818182 239.916117 
z
" clip-path="url(#pbae21edd63)" style="fill: #ff4500"/>
   </g>
   <g id="patch_20">
    <path d="M 59.509091 256.32 
L 61.2 256.32 
L 61.2 239.916117 
L 59.509091 239.916117 
z
" clip-path="url(#pbae21edd63)" style="fill: #ff4500"/>
   </g>
   <g id="patch_21">
    <path d="M 61.2 256.32 
L 62.890909 256.32 
L 62.890909 241.966602 
L 61.2 241.966602 
z
" clip-path="url(#pbae21edd63)" style="fill: #ff4500"/>
   </g>
   <g id="patch_22">
    <path d="M 62.890909 256.32 
L 64.581818 256.32 
L 64.581818 241.966602 
L 62.890909 241.966602 
z
" clip-path="url(#pbae21edd63)" style="fill: #ff4500"/>
   </g>
   <g id="patch_23">
    <path d="M 64.581818 256.32 
L 66.272727 256.32 
L 66.272727 235.815146 
L 64.581818 235.815146 
z
" clip-path="url(#pbae21edd63)" style="fill: #ff4500"/>
   </g>
   <g id="patch_24">
    <path d="M 66.272727 256.32 
L 67.963636 256.32 
L 67.963636 231.714175 
L 66.272727 231.714175 
z
" clip-path="url(#pbae21edd63)" style="fill: #ff4500"/>
   </g>
   <g id="patch_25">
    <path d="M 67.963636 256.32 
L 69.654545 256.32 
L 69.654545 235.815146 
L 67.963636 235.815146 
z
" clip-path="url(#pbae21edd63)" style="fill: #ff4500"/>
   </g>
   <g id="patch_26">
    <path d="M 69.654545 256.32 
L 71.345455 256.32 
L 71.345455 235.815146 
L 69.654545 235.815146 
z
" clip-path="url(#pbae21edd63)" style="fill: #ff4500"/>
   </g>
   <g id="patch_27">
    <path d="M 71.345455 256.32 
L 73.036364 256.32 
L 73.036364 239.916117 
L 71.345455 239.916117 
z
" clip-path="url(#pbae21edd63)" style="fill: #ff4500"/>
   </g>
   <g id="patch_28">
    <path d="M 73.036364 256.32 
L 74.727273 256.32 
L 74.727273 235.815146 
L 73.036364 235.815146 
z
" clip-path="url(#pbae21edd63)" style="fill: #ff4500"/>
   </g>
   <g id="patch_29">
    <path d="M 74.727273 256.32 
L 76.418182 256.32 
L 76.418182 237.865631 
L 74.727273 237.865631 
z
" clip-path="url(#pbae21edd63)" style="fill: #ff4500"/>
   </g>
   <g id="patch_30">
    <path d="M 76.418182 256.32 
L 78.109091 256.32 
L 78.109091 229.663689 
L 76.418182 229.663689 
z
" clip-path="url(#pbae21edd63)" style="fill: #ff4500"/>
   </g>
   <g id="patch_31">
    <path d="M 78.109091 256.32 
L 79.8 256.32 
L 79.8 233.76466 
L 78.109091 233.76466 
z
" clip-path="url(#pbae21edd63)" style="fill: #ff4500"/>
   </g>
   <g id="patch_32">
    <path d="M 79.8 256.32 
L 81.490909 256.32 
L 81.490909 246.067573 
L 79.8 246.067573 
z
" clip-path="url(#pbae21edd63)" style="fill: #ff4500"/>
   </g>
   <g id="patch_33">
    <path d="M 81.490909 256.32 
L 83.181818 256.32 
L 83.181818 213.259806 
L 81.490909 213.259806 
z
" clip-path="url(#pbae21edd63)" style="fill: #ff4500"/>
   </g>
   <g id="patch_34">
    <path d="M 83.181818 256.32 
L 84.872727 256.32 
L 84.872727 200.956893 
L 83.181818 200.956893 
z
" clip-path="url(#pbae21edd63)" style="fill: #ff4500"/>
   </g>
   <g id="patch_35">
    <path d="M 84.872727 256.32 
L 86.563636 256.32 
L 86.563636 229.663689 
L 84.872727 229.663689 
z
" clip-path="url(#pbae21edd63)" style="fill: #ff4500"/>
   </g>
   <g id="patch_36">
    <path d="M 86.563636 256.32 
L 88.254545 256.32 
L 88.254545 213.259806 
L 86.563636 213.259806 
z
" clip-path="url(#pbae21edd63)" style="fill: #ff4500"/>
   </g>
   <g id="patch_37">
    <path d="M 88.254545 256.32 
L 89.945455 256.32 
L 89.945455 211.20932 
L 88.254545 211.20932 
z
" clip-path="url(#pbae21edd63)" style="fill: #ff4500"/>
   </g>
   <g id="patch_38">
    <path d="M 89.945455 256.32 
L 91.636364 256.32 
L 91.636364 227.613204 
L 89.945455 227.613204 
z
" clip-path="url(#pbae21edd63)" style="fill: #ff4500"/>
   </g>
   <g id="patch_39">
    <path d="M 91.636364 256.32 
L 93.327273 256.32 
L 93.327273 219.411262 
L 91.636364 219.411262 
z
" clip-path="url(#pbae21edd63)" style="fill: #ff4500"/>
   </g>
   <g id="patch_40">
    <path d="M 93.327273 256.32 
L 95.018182 256.32 
L 95.018182 213.259806 
L 93.327273 213.259806 
z
" clip-path="url(#pbae21edd63)" style="fill: #ff4500"/>
   </g>
   <g id="patch_41">
    <path d="M 95.018182 256.32 
L 96.709091 256.32 
L 96.709091 131.240388 
L 95.018182 131.240388 
z
" clip-path="url(#pbae21edd63)" style="fill: #ff4500"/>
   </g>
   <g id="patch_42">
    <path d="M 96.709091 256.32 
L 98.4 256.32 
L 98.4 86.129709 
L 96.709091 86.129709 
z
" clip-path="url(#pbae21edd63)" style="fill: #ff4500"/>
   </g>
   <g id="patch_43">
    <path d="M 98.4 256.32 
L 100.090909 256.32 
L 100.090909 45.12 
L 98.4 45.12 
z
" clip-path="url(#pbae21edd63)" style="fill: #ff4500"/>
   </g>
   <g id="patch_44">
    <path d="M 100.090909 256.32 
L 101.781818 256.32 
L 101.781818 75.877282 
L 100.090909 75.877282 
z
" clip-path="url(#pbae21edd63)" style="fill: #ff4500"/>
   </g>
   <g id="patch_45">
    <path d="M 101.781818 256.32 
L 103.472727 256.32 
L 103.472727 131.240388 
L 101.781818 131.240388 
z
" clip-path="url(#pbae21edd63)" style="fill: #ff4500"/>
   </g>
   <g id="patch_46">
    <path d="M 103.472727 256.32 
L 105.163636 256.32 
L 105.163636 205.057864 
L 103.472727 205.057864 
z
" clip-path="url(#pbae21edd63)" style="fill: #ff4500"/>
   </g>
   <g id="patch_47">
    <path d="M 105.163636 256.32 
L 106.854545 256.32 
L 106.854545 219.411262 
L 105.163636 219.411262 
z
" clip-path="url(#pbae21edd63)" style="fill: #ff4500"/>
   </g>
   <g id="patch_48">
    <path d="M 106.854545 256.32 
L 108.545455 256.32 
L 108.545455 229.663689 
L 106.854545 229.663689 
z
" clip-path="url(#pbae21edd63)" style="fill: #ff4500"/>
   </g>
   <g id="patch_49">
    <path d="M 108.545455 256.32 
L 110.236364 256.32 
L 110.236364 225.562718 
L 108.545455 225.562718 
z
" clip-path="url(#pbae21edd63)" style="fill: #ff4500"/>
   </g>
   <g id="patch_50">
    <path d="M 110.236364 256.32 
L 111.927273 256.32 
L 111.927273 227.613204 
L 110.236364 227.613204 
z
" clip-path="url(#pbae21edd63)" style="fill: #ff4500"/>
   </g>
   <g id="patch_51">
    <path d="M 111.927273 256.32 
L 113.618182 256.32 
L 113.618182 207.10835 
L 111.927273 207.10835 
z
" clip-path="url(#pbae21edd63)" style="fill: #ff4500"/>
   </g>
   <g id="patch_52">
    <path d="M 113.618182 256.32 
L 115.309091 256.32 
L 115.309091 221.461748 
L 113.618182 221.461748 
z
" clip-path="url(#pbae21edd63)" style="fill: #ff4500"/>
   </g>
   <g id="patch_53">
    <path d="M 115.309091 256.32 
L 117 256.32 
L 117 237.865631 
L 115.309091 237.865631 
z
" clip-path="url(#pbae21edd63)" style="fill: #ff4500"/>
   </g>
   <g id="patch_54">
    <path d="M 117 256.32 
L 118.690909 256.32 
L 118.690909 233.76466 
L 117 233.76466 
z
" clip-path="url(#pbae21edd63)" style="fill: #ff4500"/>
   </g>
   <g id="patch_55">
    <path d="M 118.690909 256.32 
L 120.381818 256.32 
L 120.381818 233.76466 
L 118.690909 233.76466 
z
" clip-path="url(#pbae21edd63)" style="fill: #ff4500"/>
   </g>
   <g id="patch_56">
    <path d="M 120.381818 256.32 
L 122.072727 256.32 
L 122.072727 225.562718 
L 120.381818 225.562718 
z
" clip-path="url(#pbae21edd63)" style="fill: #ff4500"/>
   </g>
   <g id="patch_57">
    <path d="M 122.072727 256.32 
L 123.763636 256.32 
L 123.763636 229.663689 
L 122.072727 229.663689 
z
" clip-path="url(#pbae21edd63)" style="fill: #ff4500"/>
   </g>
   <g id="patch_58">
    <path d="M 123.763636 256.32 
L 125.454545 256.32 
L 125.454545 231.714175 
L 123.763636 231.714175 
z
" clip-path="url(#pbae21edd63)" style="fill: #ff4500"/>
   </g>
   <g id="patch_59">
    <path d="M 125.454545 256.32 
L 127.145455 256.32 
L 127.145455 244.017087 
L 125.454545 244.017087 
z
" clip-path="url(#pbae21edd63)" style="fill: #ff4500"/>
   </g>
   <g id="patch_60">
    <path d="M 127.145455 256.32 
L 128.836364 256.32 
L 128.836364 237.865631 
L 127.145455 237.865631 
z
" clip-path="url(#pbae21edd63)" style="fill: #ff4500"/>
   </g>
   <g id="patch_61">
    <path d="M 128.836364 256.32 
L 130.527273 256.32 
L 130.527273 244.017087 
L 128.836364 244.017087 
z
" clip-path="url(#pbae21edd63)" style="fill: #ff4500"/>
   </g>
   <g id="patch_62">
    <path d="M 130.527273 256.32 
L 132.218182 256.32 
L 132.218182 237.865631 
L 130.527273 237.865631 
z
" clip-path="url(#pbae21edd63)" style="fill: #ff4500"/>
   </g>
   <g id="patch_63">
    <path d="M 132.218182 256.32 
L 133.909091 256.32 
L 133.909091 248.118058 
L 132.218182 248.118058 
z
" clip-path="url(#pbae21edd63)" style="fill: #ff4500"/>
   </g>
   <g id="patch_64">
    <path d="M 133.909091 256.32 
L 135.6 256.32 
L 135.6 246.067573 
L 133.909091 246.067573 
z
" clip-path="url(#pbae21edd63)" style="fill: #ff4500"/>
   </g>
   <g id="patch_65">
    <path d="M 135.6 256.32 
L 137.290909 256.32 
L 137.290909 244.017087 
L 135.6 244.017087 
z
" clip-path="url(#pbae21edd63)" style="fill: #ff4500"/>
   </g>
   <g id="patch_66">
    <path d="M 137.290909 256.32 
L 138.981818 256.32 
L 138.981818 248.118058 
L 137.290909 248.118058 
z
" clip-path="url(#pbae21edd63)" style="fill: #ff4500"/>
   </g>
   <g id="patch_67">
    <path d="M 138.981818 256.32 
L 140.672727 256.32 
L 140.672727 233.76466 
L 138.981818 233.76466 
z
" clip-path="url(#pbae21edd63)" style="fill: #ff4500"/>
   </g>
   <g id="patch_68">
    <path d="M 140.672727 256.32 
L 142.363636 256.32 
L 142.363636 235.815146 
L 140.672727 235.815146 
z
" clip-path="url(#pbae21edd63)" style="fill: #ff4500"/>
   </g>
   <g id="patch_69">
    <path d="M 142.363636 256.32 
L 144.054545 256.32 
L 144.054545 246.067573 
L 142.363636 246.067573 
z
" clip-path="url(#pbae21edd63)" style="fill: #ff4500"/>
   </g>
   <g id="patch_70">
    <path d="M 144.054545 256.32 
L 145.745455 256.32 
L 145.745455 241.966602 
L 144.054545 241.966602 
z
" clip-path="url(#pbae21edd63)" style="fill: #ff4500"/>
   </g>
   <g id="patch_71">
    <path d="M 145.745455 256.32 
L 147.436364 256.32 
L 147.436364 237.865631 
L 145.745455 237.865631 
z
" clip-path="url(#pbae21edd63)" style="fill: #ff4500"/>
   </g>
   <g id="patch_72">
    <path d="M 147.436364 256.32 
L 149.127273 256.32 
L 149.127273 235.815146 
L 147.436364 235.815146 
z
" clip-path="url(#pbae21edd63)" style="fill: #ff4500"/>
   </g>
   <g id="patch_73">
    <path d="M 149.127273 256.32 
L 150.818182 256.32 
L 150.818182 239.916117 
L 149.127273 239.916117 
z
" clip-path="url(#pbae21edd63)" style="fill: #ff4500"/>
   </g>
   <g id="patch_74">
    <path d="M 150.818182 256.32 
L 152.509091 256.32 
L 152.509091 239.916117 
L 150.818182 239.916117 
z
" clip-path="url(#pbae21edd63)" style="fill: #ff4500"/>
   </g>
   <g id="patch_75">
    <path d="M 152.509091 256.32 
L 154.2 256.32 
L 154.2 244.017087 
L 152.509091 244.017087 
z
" clip-path="url(#pbae21edd63)" style="fill: #ff4500"/>
   </g>
   <g id="patch_76">
    <path d="M 154.2 256.32 
L 155.890909 256.32 
L 155.890909 244.017087 
L 154.2 244.017087 
z
" clip-path="url(#pbae21edd63)" style="fill: #ff4500"/>
   </g>
   <g id="patch_77">
    <path d="M 155.890909 256.32 
L 157.581818 256.32 
L 157.581818 241.966602 
L 155.890909 241.966602 
z
" clip-path="url(#pbae21edd63)" style="fill: #ff4500"/>
   </g>
   <g id="patch_78">
    <path d="M 157.581818 256.32 
L 159.272727 256.32 
L 159.272727 235.815146 
L 157.581818 235.815146 
z
" clip-path="url(#pbae21edd63)" style="fill: #ff4500"/>
   </g>
   <g id="patch_79">
    <path d="M 159.272727 256.32 
L 160.963636 256.32 
L 160.963636 241.966602 
L 159.272727 241.966602 
z
" clip-path="url(#pbae21edd63)" style="fill: #ff4500"/>
   </g>
   <g id="patch_80">
    <path d="M 160.963636 256.32 
L 162.654545 256.32 
L 162.654545 246.067573 
L 160.963636 246.067573 
z
" clip-path="url(#pbae21edd63)" style="fill: #ff4500"/>
   </g>
   <g id="patch_81">
    <path d="M 162.654545 256.32 
L 164.345455 256.32 
L 164.345455 237.865631 
L 162.654545 237.865631 
z
" clip-path="url(#pbae21edd63)" style="fill: #ff4500"/>
   </g>
   <g id="patch_82">
    <path d="M 164.345455 256.32 
L 166.036364 256.32 
L 166.036364 241.966602 
L 164.345455 241.966602 
z
" clip-path="url(#pbae21edd63)" style="fill: #ff4500"/>
   </g>
   <g id="patch_83">
    <path d="M 30.763636 256.32 
L 32.454545 256.32 
L 32.454545 239.916117 
L 30.763636 239.916117 
z
" clip-path="url(#pbae21edd63)" style="fill: #0000ff; opacity: 0.6"/>
   </g>
   <g id="patch_84">
    <path d="M 32.454545 256.32 
L 34.145455 256.32 
L 34.145455 241.966602 
L 32.454545 241.966602 
z
" clip-path="url(#pbae21edd63)" style="fill: #0000ff; opacity: 0.6"/>
   </g>
   <g id="patch_85">
    <path d="M 34.145455 256.32 
L 35.836364 256.32 
L 35.836364 246.067573 
L 34.145455 246.067573 
z
" clip-path="url(#pbae21edd63)" style="fill: #0000ff; opacity: 0.6"/>
   </g>
   <g id="patch_86">
    <path d="M 35.836364 256.32 
L 37.527273 256.32 
L 37.527273 246.067573 
L 35.836364 246.067573 
z
" clip-path="url(#pbae21edd63)" style="fill: #0000ff; opacity: 0.6"/>
   </g>
   <g id="patch_87">
    <path d="M 37.527273 256.32 
L 39.218182 256.32 
L 39.218182 241.966602 
L 37.527273 241.966602 
z
" clip-path="url(#pbae21edd63)" style="fill: #0000ff; opacity: 0.6"/>
   </g>
   <g id="patch_88">
    <path d="M 39.218182 256.32 
L 40.909091 256.32 
L 40.909091 241.966602 
L 39.218182 241.966602 
z
" clip-path="url(#pbae21edd63)" style="fill: #0000ff; opacity: 0.6"/>
   </g>
   <g id="patch_89">
    <path d="M 40.909091 256.32 
L 42.6 256.32 
L 42.6 227.613204 
L 40.909091 227.613204 
z
" clip-path="url(#pbae21edd63)" style="fill: #0000ff; opacity: 0.6"/>
   </g>
   <g id="patch_90">
    <path d="M 42.6 256.32 
L 44.290909 256.32 
L 44.290909 248.118058 
L 42.6 248.118058 
z
" clip-path="url(#pbae21edd63)" style="fill: #0000ff; opacity: 0.6"/>
   </g>
   <g id="patch_91">
    <path d="M 44.290909 256.32 
L 45.981818 256.32 
L 45.981818 239.916117 
L 44.290909 239.916117 
z
" clip-path="url(#pbae21edd63)" style="fill: #0000ff; opacity: 0.6"/>
   </g>
   <g id="patch_92">
    <path d="M 45.981818 256.32 
L 47.672727 256.32 
L 47.672727 239.916117 
L 45.981818 239.916117 
z
" clip-path="url(#pbae21edd63)" style="fill: #0000ff; opacity: 0.6"/>
   </g>
   <g id="patch_93">
    <path d="M 47.672727 256.32 
L 49.363636 256.32 
L 49.363636 227.613204 
L 47.672727 227.613204 
z
" clip-path="url(#pbae21edd63)" style="fill: #0000ff; opacity: 0.6"/>
   </g>
   <g id="patch_94">
    <path d="M 49.363636 256.32 
L 51.054545 256.32 
L 51.054545 244.017087 
L 49.363636 244.017087 
z
" clip-path="url(#pbae21edd63)" style="fill: #0000ff; opacity: 0.6"/>
   </g>
   <g id="patch_95">
    <path d="M 51.054545 256.32 
L 52.745455 256.32 
L 52.745455 244.017087 
L 51.054545 244.017087 
z
" clip-path="url(#pbae21edd63)" style="fill: #0000ff; opacity: 0.6"/>
   </g>
   <g id="patch_96">
    <path d="M 52.745455 256.32 
L 54.436364 256.32 
L 54.436364 252.219029 
L 52.745455 252.219029 
z
" clip-path="url(#pbae21edd63)" style="fill: #0000ff; opacity: 0.6"/>
   </g>
   <g id="patch_97">
    <path d="M 54.436364 256.32 
L 56.127273 256.32 
L 56.127273 241.966602 
L 54.436364 241.966602 
z
" clip-path="url(#pbae21edd63)" style="fill: #0000ff; opacity: 0.6"/>
   </g>
   <g id="patch_98">
    <path d="M 56.127273 256.32 
L 57.818182 256.32 
L 57.818182 229.663689 
L 56.127273 229.663689 
z
" clip-path="url(#pbae21edd63)" style="fill: #0000ff; opacity: 0.6"/>
   </g>
   <g id="patch_99">
    <path d="M 57.818182 256.32 
L 59.509091 256.32 
L 59.509091 237.865631 
L 57.818182 237.865631 
z
" clip-path="url(#pbae21edd63)" style="fill: #0000ff; opacity: 0.6"/>
   </g>
   <g id="patch_100">
    <path d="M 59.509091 256.32 
L 61.2 256.32 
L 61.2 248.118058 
L 59.509091 248.118058 
z
" clip-path="url(#pbae21edd63)" style="fill: #0000ff; opacity: 0.6"/>
   </g>
   <g id="patch_101">
    <path d="M 61.2 256.32 
L 62.890909 256.32 
L 62.890909 244.017087 
L 61.2 244.017087 
z
" clip-path="url(#pbae21edd63)" style="fill: #0000ff; opacity: 0.6"/>
   </g>
   <g id="patch_102">
    <path d="M 62.890909 256.32 
L 64.581818 256.32 
L 64.581818 233.76466 
L 62.890909 233.76466 
z
" clip-path="url(#pbae21edd63)" style="fill: #0000ff; opacity: 0.6"/>
   </g>
   <g id="patch_103">
    <path d="M 64.581818 256.32 
L 66.272727 256.32 
L 66.272727 239.916117 
L 64.581818 239.916117 
z
" clip-path="url(#pbae21edd63)" style="fill: #0000ff; opacity: 0.6"/>
   </g>
   <g id="patch_104">
    <path d="M 66.272727 256.32 
L 67.963636 256.32 
L 67.963636 241.966602 
L 66.272727 241.966602 
z
" clip-path="url(#pbae21edd63)" style="fill: #0000ff; opacity: 0.6"/>
   </g>
   <g id="patch_105">
    <path d="M 67.963636 256.32 
L 69.654545 256.32 
L 69.654545 237.865631 
L 67.963636 237.865631 
z
" clip-path="url(#pbae21edd63)" style="fill: #0000ff; opacity: 0.6"/>
   </g>
   <g id="patch_106">
    <path d="M 69.654545 256.32 
L 71.345455 256.32 
L 71.345455 235.815146 
L 69.654545 235.815146 
z
" clip-path="url(#pbae21edd63)" style="fill: #0000ff; opacity: 0.6"/>
   </g>
   <g id="patch_107">
    <path d="M 71.345455 256.32 
L 73.036364 256.32 
L 73.036364 237.865631 
L 71.345455 237.865631 
z
" clip-path="url(#pbae21edd63)" style="fill: #0000ff; opacity: 0.6"/>
   </g>
   <g id="patch_108">
    <path d="M 73.036364 256.32 
L 74.727273 256.32 
L 74.727273 244.017087 
L 73.036364 244.017087 
z
" clip-path="url(#pbae21edd63)" style="fill: #0000ff; opacity: 0.6"/>
   </g>
   <g id="patch_109">
    <path d="M 74.727273 256.32 
L 76.418182 256.32 
L 76.418182 241.966602 
L 74.727273 241.966602 
z
" clip-path="url(#pbae21edd63)" style="fill: #0000ff; opacity: 0.6"/>
   </g>
   <g id="patch_110">
    <path d="M 76.418182 256.32 
L 78.109091 256.32 
L 78.109091 239.916117 
L 76.418182 239.916117 
z
" clip-path="url(#pbae21edd63)" style="fill: #0000ff; opacity: 0.6"/>
   </g>
   <g id="patch_111">
    <path d="M 78.109091 256.32 
L 79.8 256.32 
L 79.8 239.916117 
L 78.109091 239.916117 
z
" clip-path="url(#pbae21edd63)" style="fill: #0000ff; opacity: 0.6"/>
   </g>
   <g id="patch_112">
    <path d="M 79.8 256.32 
L 81.490909 256.32 
L 81.490909 235.815146 
L 79.8 235.815146 
z
" clip-path="url(#pbae21edd63)" style="fill: #0000ff; opacity: 0.6"/>
   </g>
   <g id="patch_113">
    <path d="M 81.490909 256.32 
L 83.181818 256.32 
L 83.181818 233.76466 
L 81.490909 233.76466 
z
" clip-path="url(#pbae21edd63)" style="fill: #0000ff; opacity: 0.6"/>
   </g>
   <g id="patch_114">
    <path d="M 83.181818 256.32 
L 84.872727 256.32 
L 84.872727 241.966602 
L 83.181818 241.966602 
z
" clip-path="url(#pbae21edd63)" style="fill: #0000ff; opacity: 0.6"/>
   </g>
   <g id="patch_115">
    <path d="M 84.872727 256.32 
L 86.563636 256.32 
L 86.563636 237.865631 
L 84.872727 237.865631 
z
" clip-path="url(#pbae21edd63)" style="fill: #0000ff; opacity: 0.6"/>
   </g>
   <g id="patch_116">
    <path d="M 86.563636 256.32 
L 88.254545 256.32 
L 88.254545 246.067573 
L 86.563636 246.067573 
z
" clip-path="url(#pbae21edd63)" style="fill: #0000ff; opacity: 0.6"/>
   </g>
   <g id="patch_117">
    <path d="M 88.254545 256.32 
L 89.945455 256.32 
L 89.945455 239.916117 
L 88.254545 239.916117 
z
" clip-path="url(#pbae21edd63)" style="fill: #0000ff; opacity: 0.6"/>
   </g>
   <g id="patch_118">
    <path d="M 89.945455 256.32 
L 91.636364 256.32 
L 91.636364 235.815146 
L 89.945455 235.815146 
z
" clip-path="url(#pbae21edd63)" style="fill: #0000ff; opacity: 0.6"/>
   </g>
   <g id="patch_119">
    <path d="M 91.636364 256.32 
L 93.327273 256.32 
L 93.327273 241.966602 
L 91.636364 241.966602 
z
" clip-path="url(#pbae21edd63)" style="fill: #0000ff; opacity: 0.6"/>
   </g>
   <g id="patch_120">
    <path d="M 93.327273 256.32 
L 95.018182 256.32 
L 95.018182 231.714175 
L 93.327273 231.714175 
z
" clip-path="url(#pbae21edd63)" style="fill: #0000ff; opacity: 0.6"/>
   </g>
   <g id="patch_121">
    <path d="M 95.018182 256.32 
L 96.709091 256.32 
L 96.709091 233.76466 
L 95.018182 233.76466 
z
" clip-path="url(#pbae21edd63)" style="fill: #0000ff; opacity: 0.6"/>
   </g>
   <g id="patch_122">
    <path d="M 96.709091 256.32 
L 98.4 256.32 
L 98.4 239.916117 
L 96.709091 239.916117 
z
" clip-path="url(#pbae21edd63)" style="fill: #0000ff; opacity: 0.6"/>
   </g>
   <g id="patch_123">
    <path d="M 98.4 256.32 
L 100.090909 256.32 
L 100.090909 237.865631 
L 98.4 237.865631 
z
" clip-path="url(#pbae21edd63)" style="fill: #0000ff; opacity: 0.6"/>
   </g>
   <g id="patch_124">
    <path d="M 100.090909 256.32 
L 101.781818 256.32 
L 101.781818 235.815146 
L 100.090909 235.815146 
z
" clip-path="url(#pbae21edd63)" style="fill: #0000ff; opacity: 0.6"/>
   </g>
   <g id="patch_125">
    <path d="M 101.781818 256.32 
L 103.472727 256.32 
L 103.472727 241.966602 
L 101.781818 241.966602 
z
" clip-path="url(#pbae21edd63)" style="fill: #0000ff; opacity: 0.6"/>
   </g>
   <g id="patch_126">
    <path d="M 103.472727 256.32 
L 105.163636 256.32 
L 105.163636 244.017087 
L 103.472727 244.017087 
z
" clip-path="url(#pbae21edd63)" style="fill: #0000ff; opacity: 0.6"/>
   </g>
   <g id="patch_127">
    <path d="M 105.163636 256.32 
L 106.854545 256.32 
L 106.854545 239.916117 
L 105.163636 239.916117 
z
" clip-path="url(#pbae21edd63)" style="fill: #0000ff; opacity: 0.6"/>
   </g>
   <g id="patch_128">
    <path d="M 106.854545 256.32 
L 108.545455 256.32 
L 108.545455 246.067573 
L 106.854545 246.067573 
z
" clip-path="url(#pbae21edd63)" style="fill: #0000ff; opacity: 0.6"/>
   </g>
   <g id="patch_129">
    <path d="M 108.545455 256.32 
L 110.236364 256.32 
L 110.236364 237.865631 
L 108.545455 237.865631 
z
" clip-path="url(#pbae21edd63)" style="fill: #0000ff; opacity: 0.6"/>
   </g>
   <g id="patch_130">
    <path d="M 110.236364 256.32 
L 111.927273 256.32 
L 111.927273 237.865631 
L 110.236364 237.865631 
z
" clip-path="url(#pbae21edd63)" style="fill: #0000ff; opacity: 0.6"/>
   </g>
   <g id="patch_131">
    <path d="M 111.927273 256.32 
L 113.618182 256.32 
L 113.618182 248.118058 
L 111.927273 248.118058 
z
" clip-path="url(#pbae21edd63)" style="fill: #0000ff; opacity: 0.6"/>
   </g>
   <g id="patch_132">
    <path d="M 113.618182 256.32 
L 115.309091 256.32 
L 115.309091 248.118058 
L 113.618182 248.118058 
z
" clip-path="url(#pbae21edd63)" style="fill: #0000ff; opacity: 0.6"/>
   </g>
   <g id="patch_133">
    <path d="M 115.309091 256.32 
L 117 256.32 
L 117 235.815146 
L 115.309091 235.815146 
z
" clip-path="url(#pbae21edd63)" style="fill: #0000ff; opacity: 0.6"/>
   </g>
   <g id="patch_134">
    <path d="M 117 256.32 
L 118.690909 256.32 
L 118.690909 231.714175 
L 117 231.714175 
z
" clip-path="url(#pbae21edd63)" style="fill: #0000ff; opacity: 0.6"/>
   </g>
   <g id="patch_135">
    <path d="M 118.690909 256.32 
L 120.381818 256.32 
L 120.381818 237.865631 
L 118.690909 237.865631 
z
" clip-path="url(#pbae21edd63)" style="fill: #0000ff; opacity: 0.6"/>
   </g>
   <g id="patch_136">
    <path d="M 120.381818 256.32 
L 122.072727 256.32 
L 122.072727 241.966602 
L 120.381818 241.966602 
z
" clip-path="url(#pbae21edd63)" style="fill: #0000ff; opacity: 0.6"/>
   </g>
   <g id="patch_137">
    <path d="M 122.072727 256.32 
L 123.763636 256.32 
L 123.763636 239.916117 
L 122.072727 239.916117 
z
" clip-path="url(#pbae21edd63)" style="fill: #0000ff; opacity: 0.6"/>
   </g>
   <g id="patch_138">
    <path d="M 123.763636 256.32 
L 125.454545 256.32 
L 125.454545 229.663689 
L 123.763636 229.663689 
z
" clip-path="url(#pbae21edd63)" style="fill: #0000ff; opacity: 0.6"/>
   </g>
   <g id="patch_139">
    <path d="M 125.454545 256.32 
L 127.145455 256.32 
L 127.145455 239.916117 
L 125.454545 239.916117 
z
" clip-path="url(#pbae21edd63)" style="fill: #0000ff; opacity: 0.6"/>
   </g>
   <g id="patch_140">
    <path d="M 127.145455 256.32 
L 128.836364 256.32 
L 128.836364 237.865631 
L 127.145455 237.865631 
z
" clip-path="url(#pbae21edd63)" style="fill: #0000ff; opacity: 0.6"/>
   </g>
   <g id="patch_141">
    <path d="M 128.836364 256.32 
L 130.527273 256.32 
L 130.527273 235.815146 
L 128.836364 235.815146 
z
" clip-path="url(#pbae21edd63)" style="fill: #0000ff; opacity: 0.6"/>
   </g>
   <g id="patch_142">
    <path d="M 130.527273 256.32 
L 132.218182 256.32 
L 132.218182 233.76466 
L 130.527273 233.76466 
z
" clip-path="url(#pbae21edd63)" style="fill: #0000ff; opacity: 0.6"/>
   </g>
   <g id="patch_143">
    <path d="M 132.218182 256.32 
L 133.909091 256.32 
L 133.909091 237.865631 
L 132.218182 237.865631 
z
" clip-path="url(#pbae21edd63)" style="fill: #0000ff; opacity: 0.6"/>
   </g>
   <g id="patch_144">
    <path d="M 133.909091 256.32 
L 135.6 256.32 
L 135.6 246.067573 
L 133.909091 246.067573 
z
" clip-path="url(#pbae21edd63)" style="fill: #0000ff; opacity: 0.6"/>
   </g>
   <g id="patch_145">
    <path d="M 135.6 256.32 
L 137.290909 256.32 
L 137.290909 229.663689 
L 135.6 229.663689 
z
" clip-path="url(#pbae21edd63)" style="fill: #0000ff; opacity: 0.6"/>
   </g>
   <g id="patch_146">
    <path d="M 137.290909 256.32 
L 138.981818 256.32 
L 138.981818 250.168544 
L 137.290909 250.168544 
z
" clip-path="url(#pbae21edd63)" style="fill: #0000ff; opacity: 0.6"/>
   </g>
   <g id="patch_147">
    <path d="M 138.981818 256.32 
L 140.672727 256.32 
L 140.672727 233.76466 
L 138.981818 233.76466 
z
" clip-path="url(#pbae21edd63)" style="fill: #0000ff; opacity: 0.6"/>
   </g>
   <g id="patch_148">
    <path d="M 140.672727 256.32 
L 142.363636 256.32 
L 142.363636 239.916117 
L 140.672727 239.916117 
z
" clip-path="url(#pbae21edd63)" style="fill: #0000ff; opacity: 0.6"/>
   </g>
   <g id="patch_149">
    <path d="M 142.363636 256.32 
L 144.054545 256.32 
L 144.054545 233.76466 
L 142.363636 233.76466 
z
" clip-path="url(#pbae21edd63)" style="fill: #0000ff; opacity: 0.6"/>
   </g>
   <g id="patch_150">
    <path d="M 144.054545 256.32 
L 145.745455 256.32 
L 145.745455 248.118058 
L 144.054545 248.118058 
z
" clip-path="url(#pbae21edd63)" style="fill: #0000ff; opacity: 0.6"/>
   </g>
   <g id="patch_151">
    <path d="M 145.745455 256.32 
L 147.436364 256.32 
L 147.436364 241.966602 
L 145.745455 241.966602 
z
" clip-path="url(#pbae21edd63)" style="fill: #0000ff; opacity: 0.6"/>
   </g>
   <g id="patch_152">
    <path d="M 147.436364 256.32 
L 149.127273 256.32 
L 149.127273 244.017087 
L 147.436364 244.017087 
z
" clip-path="url(#pbae21edd63)" style="fill: #0000ff; opacity: 0.6"/>
   </g>
   <g id="patch_153">
    <path d="M 149.127273 256.32 
L 150.818182 256.32 
L 150.818182 241.966602 
L 149.127273 241.966602 
z
" clip-path="url(#pbae21edd63)" style="fill: #0000ff; opacity: 0.6"/>
   </g>
   <g id="patch_154">
    <path d="M 150.818182 256.32 
L 152.509091 256.32 
L 152.509091 241.966602 
L 150.818182 241.966602 
z
" clip-path="url(#pbae21edd63)" style="fill: #0000ff; opacity: 0.6"/>
   </g>
   <g id="patch_155">
    <path d="M 152.509091 256.32 
L 154.2 256.32 
L 154.2 246.067573 
L 152.509091 246.067573 
z
" clip-path="url(#pbae21edd63)" style="fill: #0000ff; opacity: 0.6"/>
   </g>
   <g id="patch_156">
    <path d="M 154.2 256.32 
L 155.890909 256.32 
L 155.890909 246.067573 
L 154.2 246.067573 
z
" clip-path="url(#pbae21edd63)" style="fill: #0000ff; opacity: 0.6"/>
   </g>
   <g id="patch_157">
    <path d="M 155.890909 256.32 
L 157.581818 256.32 
L 157.581818 235.815146 
L 155.890909 235.815146 
z
" clip-path="url(#pbae21edd63)" style="fill: #0000ff; opacity: 0.6"/>
   </g>
   <g id="patch_158">
    <path d="M 157.581818 256.32 
L 159.272727 256.32 
L 159.272727 239.916117 
L 157.581818 239.916117 
z
" clip-path="url(#pbae21edd63)" style="fill: #0000ff; opacity: 0.6"/>
   </g>
   <g id="patch_159">
    <path d="M 159.272727 256.32 
L 160.963636 256.32 
L 160.963636 235.815146 
L 159.272727 235.815146 
z
" clip-path="url(#pbae21edd63)" style="fill: #0000ff; opacity: 0.6"/>
   </g>
   <g id="patch_160">
    <path d="M 160.963636 256.32 
L 162.654545 256.32 
L 162.654545 227.613204 
L 160.963636 227.613204 
z
" clip-path="url(#pbae21edd63)" style="fill: #0000ff; opacity: 0.6"/>
   </g>
   <g id="patch_161">
    <path d="M 162.654545 256.32 
L 164.345455 256.32 
L 164.345455 229.663689 
L 162.654545 229.663689 
z
" clip-path="url(#pbae21edd63)" style="fill: #0000ff; opacity: 0.6"/>
   </g>
   <g id="patch_162">
    <path d="M 164.345455 256.32 
L 166.036364 256.32 
L 166.036364 235.815146 
L 164.345455 235.815146 
z
" clip-path="url(#pbae21edd63)" style="fill: #0000ff; opacity: 0.6"/>
   </g>
   <g id="matplotlib.axis_1">
    <g id="xtick_1">
     <g id="line2d_1">
      <defs>
       <path id="md53ebd9762" d="M 0 0 
L 0 3.5 
" style="stroke: #000000; stroke-width: 0.8"/>
      </defs>
      <g>
       <use xlink:href="#md53ebd9762" x="31.101818" y="256.32" style="stroke: #000000; stroke-width: 0.8"/>
      </g>
     </g>
     <g id="text_1">
      <!-- 440 -->
      <g transform="translate(16.786193 274.717656) scale(0.15 -0.15)">
       <defs>
        <path id="DejaVuSans-34" d="M 2419 4116 
L 825 1625 
L 2419 1625 
L 2419 4116 
z
M 2253 4666 
L 3047 4666 
L 3047 1625 
L 3713 1625 
L 3713 1100 
L 3047 1100 
L 3047 0 
L 2419 0 
L 2419 1100 
L 313 1100 
L 313 1709 
L 2253 4666 
z
" transform="scale(0.015625)"/>
        <path id="DejaVuSans-30" d="M 2034 4250 
Q 1547 4250 1301 3770 
Q 1056 3291 1056 2328 
Q 1056 1369 1301 889 
Q 1547 409 2034 409 
Q 2525 409 2770 889 
Q 3016 1369 3016 2328 
Q 3016 3291 2770 3770 
Q 2525 4250 2034 4250 
z
M 2034 4750 
Q 2819 4750 3233 4129 
Q 3647 3509 3647 2328 
Q 3647 1150 3233 529 
Q 2819 -91 2034 -91 
Q 1250 -91 836 529 
Q 422 1150 422 2328 
Q 422 3509 836 4129 
Q 1250 4750 2034 4750 
z
" transform="scale(0.015625)"/>
       </defs>
       <use xlink:href="#DejaVuSans-34"/>
       <use xlink:href="#DejaVuSans-34" x="63.623047"/>
       <use xlink:href="#DejaVuSans-30" x="127.246094"/>
      </g>
     </g>
    </g>
    <g id="xtick_2">
     <g id="line2d_2">
      <g>
       <use xlink:href="#md53ebd9762" x="98.738182" y="256.32" style="stroke: #000000; stroke-width: 0.8"/>
      </g>
     </g>
     <g id="text_2">
      <!-- 460 -->
      <g transform="translate(84.422557 274.717656) scale(0.15 -0.15)">
       <defs>
        <path id="DejaVuSans-36" d="M 2113 2584 
Q 1688 2584 1439 2293 
Q 1191 2003 1191 1497 
Q 1191 994 1439 701 
Q 1688 409 2113 409 
Q 2538 409 2786 701 
Q 3034 994 3034 1497 
Q 3034 2003 2786 2293 
Q 2538 2584 2113 2584 
z
M 3366 4563 
L 3366 3988 
Q 3128 4100 2886 4159 
Q 2644 4219 2406 4219 
Q 1781 4219 1451 3797 
Q 1122 3375 1075 2522 
Q 1259 2794 1537 2939 
Q 1816 3084 2150 3084 
Q 2853 3084 3261 2657 
Q 3669 2231 3669 1497 
Q 3669 778 3244 343 
Q 2819 -91 2113 -91 
Q 1303 -91 875 529 
Q 447 1150 447 2328 
Q 447 3434 972 4092 
Q 1497 4750 2381 4750 
Q 2619 4750 2861 4703 
Q 3103 4656 3366 4563 
z
" transform="scale(0.015625)"/>
       </defs>
       <use xlink:href="#DejaVuSans-34"/>
       <use xlink:href="#DejaVuSans-36" x="63.623047"/>
       <use xlink:href="#DejaVuSans-30" x="127.246094"/>
      </g>
     </g>
    </g>
    <g id="xtick_3">
     <g id="line2d_3">
      <g>
       <use xlink:href="#md53ebd9762" x="166.374545" y="256.32" style="stroke: #000000; stroke-width: 0.8"/>
      </g>
     </g>
     <g id="text_3">
      <!-- 480 -->
      <g transform="translate(152.05892 274.717656) scale(0.15 -0.15)">
       <defs>
        <path id="DejaVuSans-38" d="M 2034 2216 
Q 1584 2216 1326 1975 
Q 1069 1734 1069 1313 
Q 1069 891 1326 650 
Q 1584 409 2034 409 
Q 2484 409 2743 651 
Q 3003 894 3003 1313 
Q 3003 1734 2745 1975 
Q 2488 2216 2034 2216 
z
M 1403 2484 
Q 997 2584 770 2862 
Q 544 3141 544 3541 
Q 544 4100 942 4425 
Q 1341 4750 2034 4750 
Q 2731 4750 3128 4425 
Q 3525 4100 3525 3541 
Q 3525 3141 3298 2862 
Q 3072 2584 2669 2484 
Q 3125 2378 3379 2068 
Q 3634 1759 3634 1313 
Q 3634 634 3220 271 
Q 2806 -91 2034 -91 
Q 1263 -91 848 271 
Q 434 634 434 1313 
Q 434 1759 690 2068 
Q 947 2378 1403 2484 
z
M 1172 3481 
Q 1172 3119 1398 2916 
Q 1625 2713 2034 2713 
Q 2441 2713 2670 2916 
Q 2900 3119 2900 3481 
Q 2900 3844 2670 4047 
Q 2441 4250 2034 4250 
Q 1625 4250 1398 4047 
Q 1172 3844 1172 3481 
z
" transform="scale(0.015625)"/>
       </defs>
       <use xlink:href="#DejaVuSans-34"/>
       <use xlink:href="#DejaVuSans-38" x="63.623047"/>
       <use xlink:href="#DejaVuSans-30" x="127.246094"/>
      </g>
     </g>
    </g>
    <g id="text_4">
     <!-- Time ($\mu s$) -->
     <g transform="translate(62.85 293.237188) scale(0.15 -0.15)">
      <defs>
       <path id="DejaVuSans-54" d="M -19 4666 
L 3928 4666 
L 3928 4134 
L 2272 4134 
L 2272 0 
L 1638 0 
L 1638 4134 
L -19 4134 
L -19 4666 
z
" transform="scale(0.015625)"/>
       <path id="DejaVuSans-69" d="M 603 3500 
L 1178 3500 
L 1178 0 
L 603 0 
L 603 3500 
z
M 603 4863 
L 1178 4863 
L 1178 4134 
L 603 4134 
L 603 4863 
z
" transform="scale(0.015625)"/>
       <path id="DejaVuSans-6d" d="M 3328 2828 
Q 3544 3216 3844 3400 
Q 4144 3584 4550 3584 
Q 5097 3584 5394 3201 
Q 5691 2819 5691 2113 
L 5691 0 
L 5113 0 
L 5113 2094 
Q 5113 2597 4934 2840 
Q 4756 3084 4391 3084 
Q 3944 3084 3684 2787 
Q 3425 2491 3425 1978 
L 3425 0 
L 2847 0 
L 2847 2094 
Q 2847 2600 2669 2842 
Q 2491 3084 2119 3084 
Q 1678 3084 1418 2786 
Q 1159 2488 1159 1978 
L 1159 0 
L 581 0 
L 581 3500 
L 1159 3500 
L 1159 2956 
Q 1356 3278 1631 3431 
Q 1906 3584 2284 3584 
Q 2666 3584 2933 3390 
Q 3200 3197 3328 2828 
z
" transform="scale(0.015625)"/>
       <path id="DejaVuSans-65" d="M 3597 1894 
L 3597 1613 
L 953 1613 
Q 991 1019 1311 708 
Q 1631 397 2203 397 
Q 2534 397 2845 478 
Q 3156 559 3463 722 
L 3463 178 
Q 3153 47 2828 -22 
Q 2503 -91 2169 -91 
Q 1331 -91 842 396 
Q 353 884 353 1716 
Q 353 2575 817 3079 
Q 1281 3584 2069 3584 
Q 2775 3584 3186 3129 
Q 3597 2675 3597 1894 
z
M 3022 2063 
Q 3016 2534 2758 2815 
Q 2500 3097 2075 3097 
Q 1594 3097 1305 2825 
Q 1016 2553 972 2059 
L 3022 2063 
z
" transform="scale(0.015625)"/>
       <path id="DejaVuSans-20" transform="scale(0.015625)"/>
       <path id="DejaVuSans-28" d="M 1984 4856 
Q 1566 4138 1362 3434 
Q 1159 2731 1159 2009 
Q 1159 1288 1364 580 
Q 1569 -128 1984 -844 
L 1484 -844 
Q 1016 -109 783 600 
Q 550 1309 550 2009 
Q 550 2706 781 3412 
Q 1013 4119 1484 4856 
L 1984 4856 
z
" transform="scale(0.015625)"/>
       <path id="DejaVuSans-Oblique-3bc" d="M -84 -1331 
L 856 3500 
L 1434 3500 
L 1009 1322 
Q 997 1256 987 1175 
Q 978 1094 978 1013 
Q 978 722 1161 565 
Q 1344 409 1684 409 
Q 2147 409 2431 671 
Q 2716 934 2816 1459 
L 3213 3500 
L 3788 3500 
L 3266 809 
Q 3253 750 3248 706 
Q 3244 663 3244 628 
Q 3244 531 3283 486 
Q 3322 441 3406 441 
Q 3438 441 3492 456 
Q 3547 472 3647 513 
L 3559 50 
Q 3422 -19 3297 -55 
Q 3172 -91 3053 -91 
Q 2847 -91 2730 40 
Q 2613 172 2613 403 
Q 2438 153 2195 31 
Q 1953 -91 1625 -91 
Q 1334 -91 1117 43 
Q 900 178 831 397 
L 494 -1331 
L -84 -1331 
z
" transform="scale(0.015625)"/>
       <path id="DejaVuSans-Oblique-73" d="M 3200 3397 
L 3091 2853 
Q 2863 2978 2609 3040 
Q 2356 3103 2088 3103 
Q 1634 3103 1373 2948 
Q 1113 2794 1113 2528 
Q 1113 2219 1719 2053 
Q 1766 2041 1788 2034 
L 1972 1978 
Q 2547 1819 2739 1644 
Q 2931 1469 2931 1166 
Q 2931 609 2489 259 
Q 2047 -91 1331 -91 
Q 1053 -91 747 -37 
Q 441 16 72 128 
L 184 722 
Q 500 559 806 475 
Q 1113 391 1394 391 
Q 1816 391 2080 572 
Q 2344 753 2344 1031 
Q 2344 1331 1650 1516 
L 1591 1531 
L 1394 1581 
Q 956 1697 753 1886 
Q 550 2075 550 2369 
Q 550 2928 970 3256 
Q 1391 3584 2113 3584 
Q 2397 3584 2667 3537 
Q 2938 3491 3200 3397 
z
" transform="scale(0.015625)"/>
       <path id="DejaVuSans-29" d="M 513 4856 
L 1013 4856 
Q 1481 4119 1714 3412 
Q 1947 2706 1947 2009 
Q 1947 1309 1714 600 
Q 1481 -109 1013 -844 
L 513 -844 
Q 928 -128 1133 580 
Q 1338 1288 1338 2009 
Q 1338 2731 1133 3434 
Q 928 4138 513 4856 
z
" transform="scale(0.015625)"/>
      </defs>
      <use xlink:href="#DejaVuSans-54" transform="translate(0 0.015625)"/>
      <use xlink:href="#DejaVuSans-69" transform="translate(61.083984 0.015625)"/>
      <use xlink:href="#DejaVuSans-6d" transform="translate(88.867188 0.015625)"/>
      <use xlink:href="#DejaVuSans-65" transform="translate(186.279297 0.015625)"/>
      <use xlink:href="#DejaVuSans-20" transform="translate(247.802734 0.015625)"/>
      <use xlink:href="#DejaVuSans-28" transform="translate(279.589844 0.015625)"/>
      <use xlink:href="#DejaVuSans-Oblique-3bc" transform="translate(318.603516 0.015625)"/>
      <use xlink:href="#DejaVuSans-Oblique-73" transform="translate(382.226562 0.015625)"/>
      <use xlink:href="#DejaVuSans-29" transform="translate(434.326172 0.015625)"/>
     </g>
    </g>
   </g>
   <g id="matplotlib.axis_2">
    <g id="ytick_1">
     <g id="line2d_4">
      <defs>
       <path id="m9df51db76d" d="M 0 0 
L -3.5 0 
" style="stroke: #000000; stroke-width: 0.8"/>
      </defs>
      <g>
       <use xlink:href="#m9df51db76d" x="24" y="256.32" style="stroke: #000000; stroke-width: 0.8"/>
      </g>
     </g>
     <g id="text_5">
      <!-- 0.0 -->
      <g transform="translate(-6.854688 262.018828) scale(0.15 -0.15)">
       <defs>
        <path id="DejaVuSans-2e" d="M 684 794 
L 1344 794 
L 1344 0 
L 684 0 
L 684 794 
z
" transform="scale(0.015625)"/>
       </defs>
       <use xlink:href="#DejaVuSans-30"/>
       <use xlink:href="#DejaVuSans-2e" x="63.623047"/>
       <use xlink:href="#DejaVuSans-30" x="95.410156"/>
      </g>
     </g>
    </g>
    <g id="ytick_2">
     <g id="line2d_5">
      <g>
       <use xlink:href="#m9df51db76d" x="24" y="215.310291" style="stroke: #000000; stroke-width: 0.8"/>
      </g>
     </g>
     <g id="text_6">
      <!-- 0.1 -->
      <g transform="translate(-6.854688 221.009119) scale(0.15 -0.15)">
       <defs>
        <path id="DejaVuSans-31" d="M 794 531 
L 1825 531 
L 1825 4091 
L 703 3866 
L 703 4441 
L 1819 4666 
L 2450 4666 
L 2450 531 
L 3481 531 
L 3481 0 
L 794 0 
L 794 531 
z
" transform="scale(0.015625)"/>
       </defs>
       <use xlink:href="#DejaVuSans-30"/>
       <use xlink:href="#DejaVuSans-2e" x="63.623047"/>
       <use xlink:href="#DejaVuSans-31" x="95.410156"/>
      </g>
     </g>
    </g>
    <g id="ytick_3">
     <g id="line2d_6">
      <g>
       <use xlink:href="#m9df51db76d" x="24" y="174.300583" style="stroke: #000000; stroke-width: 0.8"/>
      </g>
     </g>
     <g id="text_7">
      <!-- 0.2 -->
      <g transform="translate(-6.854688 179.999411) scale(0.15 -0.15)">
       <defs>
        <path id="DejaVuSans-32" d="M 1228 531 
L 3431 531 
L 3431 0 
L 469 0 
L 469 531 
Q 828 903 1448 1529 
Q 2069 2156 2228 2338 
Q 2531 2678 2651 2914 
Q 2772 3150 2772 3378 
Q 2772 3750 2511 3984 
Q 2250 4219 1831 4219 
Q 1534 4219 1204 4116 
Q 875 4013 500 3803 
L 500 4441 
Q 881 4594 1212 4672 
Q 1544 4750 1819 4750 
Q 2544 4750 2975 4387 
Q 3406 4025 3406 3419 
Q 3406 3131 3298 2873 
Q 3191 2616 2906 2266 
Q 2828 2175 2409 1742 
Q 1991 1309 1228 531 
z
" transform="scale(0.015625)"/>
       </defs>
       <use xlink:href="#DejaVuSans-30"/>
       <use xlink:href="#DejaVuSans-2e" x="63.623047"/>
       <use xlink:href="#DejaVuSans-32" x="95.410156"/>
      </g>
     </g>
    </g>
    <g id="ytick_4">
     <g id="line2d_7">
      <g>
       <use xlink:href="#m9df51db76d" x="24" y="133.290874" style="stroke: #000000; stroke-width: 0.8"/>
      </g>
     </g>
     <g id="text_8">
      <!-- 0.3 -->
      <g transform="translate(-6.854688 138.989702) scale(0.15 -0.15)">
       <defs>
        <path id="DejaVuSans-33" d="M 2597 2516 
Q 3050 2419 3304 2112 
Q 3559 1806 3559 1356 
Q 3559 666 3084 287 
Q 2609 -91 1734 -91 
Q 1441 -91 1130 -33 
Q 819 25 488 141 
L 488 750 
Q 750 597 1062 519 
Q 1375 441 1716 441 
Q 2309 441 2620 675 
Q 2931 909 2931 1356 
Q 2931 1769 2642 2001 
Q 2353 2234 1838 2234 
L 1294 2234 
L 1294 2753 
L 1863 2753 
Q 2328 2753 2575 2939 
Q 2822 3125 2822 3475 
Q 2822 3834 2567 4026 
Q 2313 4219 1838 4219 
Q 1578 4219 1281 4162 
Q 984 4106 628 3988 
L 628 4550 
Q 988 4650 1302 4700 
Q 1616 4750 1894 4750 
Q 2613 4750 3031 4423 
Q 3450 4097 3450 3541 
Q 3450 3153 3228 2886 
Q 3006 2619 2597 2516 
z
" transform="scale(0.015625)"/>
       </defs>
       <use xlink:href="#DejaVuSans-30"/>
       <use xlink:href="#DejaVuSans-2e" x="63.623047"/>
       <use xlink:href="#DejaVuSans-33" x="95.410156"/>
      </g>
     </g>
    </g>
    <g id="ytick_5">
     <g id="line2d_8">
      <g>
       <use xlink:href="#m9df51db76d" x="24" y="92.281165" style="stroke: #000000; stroke-width: 0.8"/>
      </g>
     </g>
     <g id="text_9">
      <!-- 0.4 -->
      <g transform="translate(-6.854688 97.979993) scale(0.15 -0.15)">
       <use xlink:href="#DejaVuSans-30"/>
       <use xlink:href="#DejaVuSans-2e" x="63.623047"/>
       <use xlink:href="#DejaVuSans-34" x="95.410156"/>
      </g>
     </g>
    </g>
    <g id="ytick_6">
     <g id="line2d_9">
      <g>
       <use xlink:href="#m9df51db76d" x="24" y="51.271456" style="stroke: #000000; stroke-width: 0.8"/>
      </g>
     </g>
     <g id="text_10">
      <!-- 0.5 -->
      <g transform="translate(-6.854688 56.970284) scale(0.15 -0.15)">
       <defs>
        <path id="DejaVuSans-35" d="M 691 4666 
L 3169 4666 
L 3169 4134 
L 1269 4134 
L 1269 2991 
Q 1406 3038 1543 3061 
Q 1681 3084 1819 3084 
Q 2600 3084 3056 2656 
Q 3513 2228 3513 1497 
Q 3513 744 3044 326 
Q 2575 -91 1722 -91 
Q 1428 -91 1123 -41 
Q 819 9 494 109 
L 494 744 
Q 775 591 1075 516 
Q 1375 441 1709 441 
Q 2250 441 2565 725 
Q 2881 1009 2881 1497 
Q 2881 1984 2565 2268 
Q 2250 2553 1709 2553 
Q 1456 2553 1204 2497 
Q 953 2441 691 2322 
L 691 4666 
z
" transform="scale(0.015625)"/>
       </defs>
       <use xlink:href="#DejaVuSans-30"/>
       <use xlink:href="#DejaVuSans-2e" x="63.623047"/>
       <use xlink:href="#DejaVuSans-35" x="95.410156"/>
      </g>
     </g>
    </g>
    <g id="text_11">
     <!-- Avg Photon Count -->
     <g transform="translate(-13.974219 212.516953) rotate(-90) scale(0.15 -0.15)">
      <defs>
       <path id="DejaVuSans-41" d="M 2188 4044 
L 1331 1722 
L 3047 1722 
L 2188 4044 
z
M 1831 4666 
L 2547 4666 
L 4325 0 
L 3669 0 
L 3244 1197 
L 1141 1197 
L 716 0 
L 50 0 
L 1831 4666 
z
" transform="scale(0.015625)"/>
       <path id="DejaVuSans-76" d="M 191 3500 
L 800 3500 
L 1894 563 
L 2988 3500 
L 3597 3500 
L 2284 0 
L 1503 0 
L 191 3500 
z
" transform="scale(0.015625)"/>
       <path id="DejaVuSans-67" d="M 2906 1791 
Q 2906 2416 2648 2759 
Q 2391 3103 1925 3103 
Q 1463 3103 1205 2759 
Q 947 2416 947 1791 
Q 947 1169 1205 825 
Q 1463 481 1925 481 
Q 2391 481 2648 825 
Q 2906 1169 2906 1791 
z
M 3481 434 
Q 3481 -459 3084 -895 
Q 2688 -1331 1869 -1331 
Q 1566 -1331 1297 -1286 
Q 1028 -1241 775 -1147 
L 775 -588 
Q 1028 -725 1275 -790 
Q 1522 -856 1778 -856 
Q 2344 -856 2625 -561 
Q 2906 -266 2906 331 
L 2906 616 
Q 2728 306 2450 153 
Q 2172 0 1784 0 
Q 1141 0 747 490 
Q 353 981 353 1791 
Q 353 2603 747 3093 
Q 1141 3584 1784 3584 
Q 2172 3584 2450 3431 
Q 2728 3278 2906 2969 
L 2906 3500 
L 3481 3500 
L 3481 434 
z
" transform="scale(0.015625)"/>
       <path id="DejaVuSans-50" d="M 1259 4147 
L 1259 2394 
L 2053 2394 
Q 2494 2394 2734 2622 
Q 2975 2850 2975 3272 
Q 2975 3691 2734 3919 
Q 2494 4147 2053 4147 
L 1259 4147 
z
M 628 4666 
L 2053 4666 
Q 2838 4666 3239 4311 
Q 3641 3956 3641 3272 
Q 3641 2581 3239 2228 
Q 2838 1875 2053 1875 
L 1259 1875 
L 1259 0 
L 628 0 
L 628 4666 
z
" transform="scale(0.015625)"/>
       <path id="DejaVuSans-68" d="M 3513 2113 
L 3513 0 
L 2938 0 
L 2938 2094 
Q 2938 2591 2744 2837 
Q 2550 3084 2163 3084 
Q 1697 3084 1428 2787 
Q 1159 2491 1159 1978 
L 1159 0 
L 581 0 
L 581 4863 
L 1159 4863 
L 1159 2956 
Q 1366 3272 1645 3428 
Q 1925 3584 2291 3584 
Q 2894 3584 3203 3211 
Q 3513 2838 3513 2113 
z
" transform="scale(0.015625)"/>
       <path id="DejaVuSans-6f" d="M 1959 3097 
Q 1497 3097 1228 2736 
Q 959 2375 959 1747 
Q 959 1119 1226 758 
Q 1494 397 1959 397 
Q 2419 397 2687 759 
Q 2956 1122 2956 1747 
Q 2956 2369 2687 2733 
Q 2419 3097 1959 3097 
z
M 1959 3584 
Q 2709 3584 3137 3096 
Q 3566 2609 3566 1747 
Q 3566 888 3137 398 
Q 2709 -91 1959 -91 
Q 1206 -91 779 398 
Q 353 888 353 1747 
Q 353 2609 779 3096 
Q 1206 3584 1959 3584 
z
" transform="scale(0.015625)"/>
       <path id="DejaVuSans-74" d="M 1172 4494 
L 1172 3500 
L 2356 3500 
L 2356 3053 
L 1172 3053 
L 1172 1153 
Q 1172 725 1289 603 
Q 1406 481 1766 481 
L 2356 481 
L 2356 0 
L 1766 0 
Q 1100 0 847 248 
Q 594 497 594 1153 
L 594 3053 
L 172 3053 
L 172 3500 
L 594 3500 
L 594 4494 
L 1172 4494 
z
" transform="scale(0.015625)"/>
       <path id="DejaVuSans-6e" d="M 3513 2113 
L 3513 0 
L 2938 0 
L 2938 2094 
Q 2938 2591 2744 2837 
Q 2550 3084 2163 3084 
Q 1697 3084 1428 2787 
Q 1159 2491 1159 1978 
L 1159 0 
L 581 0 
L 581 3500 
L 1159 3500 
L 1159 2956 
Q 1366 3272 1645 3428 
Q 1925 3584 2291 3584 
Q 2894 3584 3203 3211 
Q 3513 2838 3513 2113 
z
" transform="scale(0.015625)"/>
       <path id="DejaVuSans-43" d="M 4122 4306 
L 4122 3641 
Q 3803 3938 3442 4084 
Q 3081 4231 2675 4231 
Q 1875 4231 1450 3742 
Q 1025 3253 1025 2328 
Q 1025 1406 1450 917 
Q 1875 428 2675 428 
Q 3081 428 3442 575 
Q 3803 722 4122 1019 
L 4122 359 
Q 3791 134 3420 21 
Q 3050 -91 2638 -91 
Q 1578 -91 968 557 
Q 359 1206 359 2328 
Q 359 3453 968 4101 
Q 1578 4750 2638 4750 
Q 3056 4750 3426 4639 
Q 3797 4528 4122 4306 
z
" transform="scale(0.015625)"/>
       <path id="DejaVuSans-75" d="M 544 1381 
L 544 3500 
L 1119 3500 
L 1119 1403 
Q 1119 906 1312 657 
Q 1506 409 1894 409 
Q 2359 409 2629 706 
Q 2900 1003 2900 1516 
L 2900 3500 
L 3475 3500 
L 3475 0 
L 2900 0 
L 2900 538 
Q 2691 219 2414 64 
Q 2138 -91 1772 -91 
Q 1169 -91 856 284 
Q 544 659 544 1381 
z
M 1991 3584 
L 1991 3584 
z
" transform="scale(0.015625)"/>
      </defs>
      <use xlink:href="#DejaVuSans-41"/>
      <use xlink:href="#DejaVuSans-76" x="62.533203"/>
      <use xlink:href="#DejaVuSans-67" x="121.712891"/>
      <use xlink:href="#DejaVuSans-20" x="185.189453"/>
      <use xlink:href="#DejaVuSans-50" x="216.976562"/>
      <use xlink:href="#DejaVuSans-68" x="277.279297"/>
      <use xlink:href="#DejaVuSans-6f" x="340.658203"/>
      <use xlink:href="#DejaVuSans-74" x="401.839844"/>
      <use xlink:href="#DejaVuSans-6f" x="441.048828"/>
      <use xlink:href="#DejaVuSans-6e" x="502.230469"/>
      <use xlink:href="#DejaVuSans-20" x="565.609375"/>
      <use xlink:href="#DejaVuSans-43" x="597.396484"/>
      <use xlink:href="#DejaVuSans-6f" x="667.220703"/>
      <use xlink:href="#DejaVuSans-75" x="728.402344"/>
      <use xlink:href="#DejaVuSans-6e" x="791.78125"/>
      <use xlink:href="#DejaVuSans-74" x="855.160156"/>
     </g>
    </g>
   </g>
   <g id="patch_163">
    <path d="M 24 256.32 
L 24 34.56 
" style="fill: none; stroke: #000000; stroke-width: 0.8; stroke-linejoin: miter; stroke-linecap: square"/>
   </g>
   <g id="patch_164">
    <path d="M 172.8 256.32 
L 172.8 34.56 
" style="fill: none; stroke: #000000; stroke-width: 0.8; stroke-linejoin: miter; stroke-linecap: square"/>
   </g>
   <g id="patch_165">
    <path d="M 24 256.32 
L 172.8 256.32 
" style="fill: none; stroke: #000000; stroke-width: 0.8; stroke-linejoin: miter; stroke-linecap: square"/>
   </g>
   <g id="patch_166">
    <path d="M 24 34.56 
L 172.8 34.56 
" style="fill: none; stroke: #000000; stroke-width: 0.8; stroke-linejoin: miter; stroke-linecap: square"/>
   </g>
  </g>
 </g>
 <defs>
  <clipPath id="pbae21edd63">
   <rect x="24" y="34.56" width="148.8" height="221.76"/>
  </clipPath>
 </defs>
</svg>
